<?xml version="1.0" encoding="UTF-8"?>
<svg version="1.1" xmlns="http://www.w3.org/2000/svg" width="348" height="403">
<path d="M0 0 C2.3984375 0.96875 2.3984375 0.96875 5.375 2.5 C6.33148438 2.9846875 7.28796875 3.469375 8.2734375 3.96875 C8.81830811 4.27844727 9.36317871 4.58814453 9.92456055 4.90722656 C12.11722791 6.10753802 12.11722791 6.10753802 15.02270508 7.20996094 C18.57202846 8.83054039 21.16601502 10.30465137 24 13 C25.98016003 18.42451219 26.08446996 23.52439915 25.9375 29.25 C25.93282715 29.99910645 25.9281543 30.74821289 25.92333984 31.52001953 C25.73082936 43.42743456 25.73082936 43.42743456 22.34033203 48.46679688 C18.02830978 52.30653539 12.92712195 54.23060251 7.52148438 56.08300781 C3.83006074 57.42547365 0.60718188 59.36157144 -2.75 61.375 C-4.05621548 62.11230226 -5.36490175 62.84524108 -6.67578125 63.57421875 C-11.77214299 66.42918601 -16.85397913 69.30975235 -21.9375 72.1875 C-29.16698697 76.27978758 -36.40897468 80.34858989 -43.66381836 84.39575195 C-52.5890822 89.37579539 -61.49221794 94.37799216 -70.26123047 99.62963867 C-74.78747571 102.33121481 -79.389996 104.87131859 -84.0234375 107.38427734 C-99.02800217 115.52897952 -113.94137211 123.82595465 -128.58129883 132.61157227 C-134.63668374 136.23836829 -140.78711648 139.65109602 -147 143 C-157.51373757 148.71312924 -167.95824119 154.5031027 -178.23510742 160.63378906 C-182.79443622 163.33829876 -187.40723622 165.81949958 -192.21484375 168.0625 C-194.17972262 168.98154873 -194.17972262 168.98154873 -196 171 C-196.29380047 173.1472866 -196.29380047 173.1472866 -196.23046875 175.61328125 C-196.22853516 176.53173828 -196.22660156 177.45019531 -196.22460938 178.39648438 C-196.21236328 179.35876953 -196.20011719 180.32105469 -196.1875 181.3125 C-196.18685547 182.26318359 -196.18621094 183.21386719 -196.18554688 184.19335938 C-196.15771666 188.61836294 -195.9699385 192.66696302 -195 197 C-176.20740865 186.39997731 -157.43158932 175.77756676 -138.8125 164.875 C-131.09552828 160.35697013 -123.34102682 155.92618338 -115.50830078 151.61230469 C-109.39513115 148.23923613 -103.35059255 144.75530112 -97.31518555 141.24536133 C-91.39275495 137.8019194 -85.45141708 134.39307852 -79.5 131 C-72.85969073 127.21343763 -66.23424563 123.4030076 -59.625 119.5625 C-52.61237462 115.48951051 -45.56477438 111.48179362 -38.5 107.5 C-29.19448205 102.25417835 -19.9359412 96.93315999 -10.69921875 91.56738281 C-5.78124337 88.71161201 -0.86101663 85.85976918 4.06210327 83.01287842 C5.77370099 82.0224513 7.48415422 81.03004717 9.19458008 80.03759766 C10.77855591 79.12179932 10.77855591 79.12179932 12.39453125 78.1875 C13.33143799 77.64480469 14.26834473 77.10210937 15.23364258 76.54296875 C18.10796693 74.93978016 21.05626711 73.47186645 24 72 C24 120.18 24 168.36 24 218 C20.04 219.98 20.04 219.98 16 222 C13.52465273 223.41563978 11.07027958 224.84735314 8.625 226.3125 C1.15784322 230.74511693 -6.35021011 235.10348783 -13.875 239.4375 C-14.99092529 240.08066162 -16.10685059 240.72382324 -17.2565918 241.38647461 C-21.43064094 243.79194654 -25.60515515 246.19661053 -29.77978516 248.60107422 C-37.891934 253.2757939 -45.9874666 257.96861507 -54 262.8125 C-58.96231448 265.81094408 -63.97537681 268.67619965 -69.08203125 271.421875 C-78.82011872 276.68852472 -88.41234932 282.20987775 -97.93994141 287.84667969 C-105.71512713 292.43960169 -113.54193555 296.9426757 -121.375 301.43603516 C-126.38347254 304.31369724 -131.37573908 307.20650974 -136.3046875 310.21875 C-137.08714844 310.69376953 -137.86960937 311.16878906 -138.67578125 311.65820312 C-140.09896262 312.52652071 -141.51612074 313.40482195 -142.92578125 314.29492188 C-147.47688228 317.06248331 -147.47688228 317.06248331 -149.86206055 316.77758789 C-152.54509013 315.80174579 -154.91257603 314.5204057 -157.40234375 313.12109375 C-158.45172119 312.53312012 -159.50109863 311.94514648 -160.58227539 311.33935547 C-161.68949951 310.71174316 -162.79672363 310.08413086 -163.9375 309.4375 C-165.06599365 308.80215332 -166.1944873 308.16680664 -167.35717773 307.51220703 C-174.15306748 303.66847336 -180.84653296 299.71505492 -187.453125 295.5546875 C-190.87278031 293.4672292 -194.37664594 291.70510779 -198 290 C-196.49637392 285.85921016 -194.11754712 284.59287503 -190.34765625 282.49609375 C-189.78076584 282.17660263 -189.21387543 281.85711151 -188.62980652 281.52793884 C-186.77942403 280.48782526 -184.9210871 279.46286792 -183.0625 278.4375 C-181.77440329 277.71618708 -180.48697209 276.9936845 -179.20019531 276.27001953 C-176.63927982 274.83078333 -174.0758704 273.39617017 -171.51025391 271.96533203 C-167.06340234 269.48119993 -162.65239896 266.93694418 -158.25 264.375 C-157.51386475 263.94815918 -156.77772949 263.52131836 -156.01928711 263.08154297 C-151.7555814 260.60792163 -147.49812729 258.12367401 -143.2421875 255.63671875 C-132.83875826 249.55772751 -122.42100571 243.50906681 -111.94946289 237.5480957 C-104.08744694 233.06583095 -96.27287285 228.50386479 -88.46020508 223.9362793 C-82.14945218 220.24845715 -75.82114962 216.59609426 -69.46875 212.98046875 C-56.24837588 205.43234974 -43.09181228 197.76899847 -30 190 C-29.11207764 189.58967529 -28.22415527 189.17935059 -27.30932617 188.7565918 C-24.71399008 187.18390533 -24.71399008 187.18390533 -24.43237305 184.1809082 C-24.45855713 183.06546631 -24.48474121 181.95002441 -24.51171875 180.80078125 C-24.52783203 179.59228516 -24.54394531 178.38378906 -24.56054688 177.13867188 C-24.62338867 175.2447168 -24.62338867 175.2447168 -24.6875 173.3125 C-24.71005859 172.03826172 -24.73261719 170.76402344 -24.75585938 169.45117188 C-24.81487738 166.2996104 -24.89717025 163.15038721 -25 160 C-42.83960798 170.0624893 -60.66330412 180.15112781 -78.375 190.4375 C-86.20156302 194.98248352 -94.07518363 199.4403804 -101.96044922 203.88256836 C-109.33364005 208.04272743 -116.67218461 212.26049844 -124 216.5 C-132.28769578 221.29483957 -140.59539092 226.0504479 -148.9375 230.75 C-156.63426131 235.08606507 -164.30101087 239.46886859 -171.93920898 243.90722656 C-177.77765745 247.29828497 -183.63493313 250.65521342 -189.5 254 C-196.55202331 258.02382468 -203.5955466 262.06185707 -210.625 266.125 C-211.82479492 266.81722656 -211.82479492 266.81722656 -213.04882812 267.5234375 C-214.15774414 268.16539062 -214.15774414 268.16539062 -215.2890625 268.8203125 C-215.93568848 269.19430176 -216.58231445 269.56829102 -217.24853516 269.95361328 C-218.86364441 270.91853637 -220.43458312 271.95638875 -222 273 C-228.55248389 272.93398001 -232.9774576 269.97297298 -238.375 266.5 C-239.19355469 265.98824219 -240.01210937 265.47648437 -240.85546875 264.94921875 C-246.7651716 261.2348284 -246.7651716 261.2348284 -248 260 C-248.14785084 258.47703797 -248.22832678 256.94747812 -248.28175354 255.41828918 C-248.31781204 254.42744827 -248.35387054 253.43660736 -248.39102173 252.41574097 C-248.44218643 250.77099289 -248.44218643 250.77099289 -248.49438477 249.09301758 C-248.53308182 247.94493118 -248.57177887 246.79684479 -248.61164856 245.6139679 C-248.9519367 234.9798306 -249.16227939 224.34320604 -249.32562351 213.70506763 C-249.43803537 206.55667972 -249.59514314 199.41506486 -249.86547852 192.27075195 C-250.10142507 186.03387781 -250.25070772 179.80177645 -250.29879421 173.56052321 C-250.32705836 170.25829079 -250.40842925 166.97202379 -250.56808662 163.67316628 C-251.33951879 147.0081045 -251.33951879 147.0081045 -248 140 C-242.22775228 133.88998553 -234.66014446 130.53994516 -227.02291679 127.31665611 C-222.48036726 125.33811154 -218.23471026 122.89232293 -213.9375 120.4375 C-212.30908784 119.54489242 -210.67907748 118.65518892 -209.046875 117.76953125 C-200.62866698 113.16799701 -192.29880327 108.40782823 -183.95410156 103.67480469 C-178.99278504 100.86202524 -174.02760038 98.05609314 -169.0625 95.25 C-167.61266724 94.43039795 -167.61266724 94.43039795 -166.13354492 93.59423828 C-160.7591246 90.5567027 -155.38186287 87.52432736 -150 84.5 C-136.1417437 76.71059228 -122.29716814 68.89718389 -108.5 61 C-94.03723585 52.72184416 -79.52262727 44.53550769 -64.99047852 36.37988281 C-59.51851746 33.30334553 -54.07185503 30.1832119 -48.625 27.0625 C-39.88007678 22.05489911 -31.09186533 17.13142357 -22.27197266 12.25732422 C-19.82913858 10.9054442 -17.38890331 9.54896138 -14.94921875 8.19140625 C-14.12123779 7.73072754 -13.29325684 7.27004883 -12.44018555 6.79541016 C-10.84649307 5.90855497 -9.25290134 5.02151871 -7.65942383 4.13427734 C-2.22273114 1.11136557 -2.22273114 1.11136557 0 0 Z " fill="#55616A" transform="translate(324,86)"/>
<path d="M0 0 C3.49873508 1.74936754 6.80426798 3.7482771 10.125 5.8125 C12.0706901 6.99371164 14.01733106 8.17335826 15.96484375 9.3515625 C16.95726074 9.95516602 17.94967773 10.55876953 18.97216797 11.18066406 C23.82990251 14.09953503 28.75672288 16.89437044 33.6875 19.6875 C35.42104613 20.66973822 37.15415634 21.6527464 38.88671875 22.63671875 C39.61076904 23.04623779 40.33481934 23.45575684 41.08081055 23.87768555 C42.75733192 24.85809119 44.3840394 25.92269294 46 27 C46 27.99 46 28.98 46 30 C44.91074219 30.5259375 43.82148438 31.051875 42.69921875 31.59375 C37.25910115 34.31559949 32.04970516 37.41046841 26.8125 40.5 C18.92210425 45.13064761 11.01486073 49.72655721 3.0625 54.25 C-3.2985225 57.87088973 -9.63527995 61.52765709 -15.9375 65.25 C-24.51165961 70.31419397 -33.13783404 75.2818986 -41.828125 80.14453125 C-49.41674501 84.39134786 -56.9543429 88.70962615 -64.44165039 93.1328125 C-76.4394061 100.21924595 -88.51955373 107.16199771 -100.625 114.0625 C-107.3550227 117.900833 -114.0678404 121.76635674 -120.75 125.6875 C-121.4713916 126.10974854 -122.1927832 126.53199707 -122.93603516 126.96704102 C-126.15151281 128.7338851 -126.15151281 128.7338851 -129 131 C-129.15786308 132.85174706 -129.25107356 134.7090911 -129.31640625 136.56640625 C-129.37924805 138.2534668 -129.37924805 138.2534668 -129.44335938 139.97460938 C-129.48267578 141.15861328 -129.52199219 142.34261719 -129.5625 143.5625 C-129.62727539 145.34430664 -129.62727539 145.34430664 -129.69335938 147.16210938 C-129.79983546 150.10794784 -129.90184841 153.0538743 -130 156 C-123.06045881 151.99844979 -116.12171745 147.99551992 -109.18400574 143.99079895 C-105.62430604 141.93632635 -102.06283502 139.88496706 -98.5 137.8359375 C-91.58660135 133.85423058 -84.7050722 129.85079799 -77.9375 125.625 C-74.47609109 123.47190835 -71.04649543 121.45712301 -67.375 119.6875 C-57.47081752 114.90395643 -48.08437222 109.01114542 -38.625 103.4140625 C-37.22925202 102.58839737 -35.83341962 101.76287492 -34.4375 100.9375 C-33.4019397 100.32515503 -33.4019397 100.32515503 -32.34545898 99.70043945 C-27.27539808 96.71642058 -22.15184247 93.84010408 -17 91 C-6.20075225 85.04468668 4.40530614 78.77841683 14.96191406 72.40454102 C20.60310665 69.00010001 26.27776147 65.69888453 32.08203125 62.578125 C35.6147228 60.66753948 39.12266442 58.71557061 42.625 56.75 C43.29225098 56.37552734 43.95950195 56.00105469 44.64697266 55.61523438 C50.65192891 52.22775016 56.5904979 48.73038219 62.50439453 45.18652344 C65.31171045 43.51593267 67.89050027 42.03649991 71 41 C73.56386184 42.30640693 75.93945015 43.66998439 78.375 45.1875 C79.90663738 46.11609375 81.43923475 47.04310542 82.97265625 47.96875 C83.78621582 48.46246094 84.59977539 48.95617188 85.43798828 49.46484375 C89.85473028 52.11135353 94.33518111 54.64529692 98.8125 57.1875 C106.23456505 61.41454276 113.63701095 65.67062342 121 70 C119.85219493 73.44341521 119.39738295 73.64475059 116.37890625 75.34765625 C115.61755371 75.78279541 114.85620117 76.21793457 114.07177734 76.66625977 C113.24371582 77.12701904 112.4156543 77.58777832 111.5625 78.0625 C110.70865723 78.54710693 109.85481445 79.03171387 108.97509766 79.53100586 C102.55514389 83.16432838 96.09723924 86.7309533 89.63964844 90.296875 C79.63835635 95.83416505 69.82359205 101.68715954 60.03808594 107.59545898 C54.39689335 110.99989999 48.72223853 114.30111547 42.91796875 117.421875 C33.05635884 122.75532936 23.34901348 128.35538468 13.69970703 134.06201172 C3.63178469 140.00556073 -6.54685943 145.75719487 -16.70703125 151.54101562 C-28.52556876 158.2712537 -40.29220918 165.07901309 -52 172 C-59.63621644 176.50998018 -67.33788252 180.89360545 -75.0625 185.25 C-82.24683948 189.30301587 -89.422725 193.36889085 -96.5625 197.5 C-97.68398437 198.14884155 -97.68398437 198.14884155 -98.828125 198.81079102 C-103.23589086 201.37027495 -107.62305262 203.96237134 -112 206.57421875 C-113.00861084 207.17492187 -114.01722168 207.775625 -115.05639648 208.39453125 C-117.02967774 209.57148062 -119.00062885 210.75234734 -120.96899414 211.9375 C-121.85707764 212.46730469 -122.74516113 212.99710938 -123.66015625 213.54296875 C-124.45043213 214.01758545 -125.24070801 214.49220215 -126.05493164 214.98120117 C-128 216 -128 216 -130 216 C-130 253.29 -130 290.58 -130 329 C-134.52399589 328.09520082 -136.30159048 327.38116778 -140 325 C-142.01887039 323.85071164 -144.03992969 322.70526451 -146.0625 321.5625 C-154.73931719 316.63408689 -163.27569332 311.47103044 -171.81860352 306.31518555 C-174.00934195 304.92114167 -174.00934195 304.92114167 -176.59581375 303.91991234 C-179 302 -179 302 -179.63479233 298.47449684 C-179.66499343 296.97203359 -179.66729085 295.46886476 -179.64837646 293.96621704 C-179.65758755 293.13822047 -179.66679863 292.31022389 -179.67628884 291.45713651 C-179.70098859 288.67234995 -179.68978345 285.88886144 -179.67871094 283.10400391 C-179.68875647 281.11168803 -179.70090191 279.1193818 -179.71499634 277.12709045 C-179.74640509 271.70755881 -179.74571403 266.28847018 -179.73749065 260.86887026 C-179.73333879 256.34834466 -179.74429139 251.82790683 -179.75513482 247.30739629 C-179.78030334 236.64398762 -179.77913148 225.98080051 -179.76171875 215.31738281 C-179.74419846 204.30914893 -179.7705765 193.30163942 -179.81868529 182.29351294 C-179.85842778 172.84966578 -179.871103 163.40604764 -179.86197114 153.96212137 C-179.85678038 148.31847036 -179.86190203 142.67530523 -179.89293671 137.03172684 C-179.92092908 131.72415816 -179.91514477 126.41768736 -179.88322067 121.11015129 C-179.87715499 119.16105428 -179.88305698 117.21187825 -179.90172958 115.26286125 C-179.92531446 112.60321335 -179.90585457 109.94724917 -179.87542725 107.28775024 C-179.89240654 106.51449831 -179.90938583 105.74124637 -179.92687964 104.94456255 C-179.85446565 101.90164552 -179.63451261 99.649889 -177.45777655 97.42040324 C-175.68747895 96.13559814 -173.92523444 95.03500525 -172 94 C-170.95090454 93.41436279 -170.95090454 93.41436279 -169.88061523 92.81689453 C-169.0096521 92.41639893 -169.0096521 92.41639893 -168.12109375 92.0078125 C-163.63237596 89.85245125 -159.35874501 87.38845555 -155.0625 84.875 C-154.23911133 84.39562988 -153.41572266 83.91625977 -152.56738281 83.42236328 C-150.04314412 81.95126135 -147.52123925 80.47623557 -145 79 C-144.24380371 78.55785156 -143.48760742 78.11570312 -142.70849609 77.66015625 C-135.79485642 73.61554642 -128.89617946 69.5485743 -122.0402832 65.40673828 C-116.39935713 61.99989217 -110.7230969 58.69934604 -104.91796875 55.578125 C-91.40448553 48.26962805 -78.13172956 40.51729104 -64.98046875 32.578125 C-64.33086182 32.18625 -63.68125488 31.794375 -63.01196289 31.390625 C-61.25888177 30.3309284 -59.50824408 29.26719246 -57.7578125 28.203125 C-54.83495954 26.46030585 -51.86311193 24.82415142 -48.87109375 23.203125 C-42.49487618 19.74679639 -36.21482001 16.13211386 -29.9375 12.5 C-28.27750977 11.54287109 -28.27750977 11.54287109 -26.58398438 10.56640625 C-24.94719727 9.62087891 -24.94719727 9.62087891 -23.27734375 8.65625 C-21.6838208 7.74166016 -21.6838208 7.74166016 -20.05810547 6.80859375 C-18.08080618 5.63919944 -16.12889727 4.42526439 -14.21142578 3.16015625 C-6.09904207 -2.1530026 -6.09904207 -2.1530026 0 0 Z " fill="#DA0026" transform="translate(179,1)"/>
<path d="M0 0 C1.65 0 3.3 0 5 0 C4.2733313 0.56424683 4.2733313 0.56424683 3.53198242 1.13989258 C1.42350188 3.69997437 1.57177677 5.4719952 1.48828125 8.76171875 C1.45283203 9.87998047 1.41738281 10.99824219 1.38085938 12.15039062 C1.35830078 13.31763672 1.33574219 14.48488281 1.3125 15.6875 C1.27833984 16.86634766 1.24417969 18.04519531 1.20898438 19.25976562 C1.12642075 22.17308225 1.05729678 25.08609466 1 28 C1.83144531 27.44119141 1.83144531 27.44119141 2.6796875 26.87109375 C3.40414062 26.39800781 4.12859375 25.92492187 4.875 25.4375 C5.59429687 24.96183594 6.31359375 24.48617187 7.0546875 23.99609375 C7.69664063 23.66738281 8.33859375 23.33867187 9 23 C9.66 23.33 10.32 23.66 11 24 C8.54300608 26.63249349 6.43431346 28.78137264 3 30 C2.01 29.67 1.02 29.34 0 29 C0 19.43 0 9.86 0 0 Z " fill="#40020C" transform="translate(48,129)"/>
<path d="M0 0 C0 0.99 0 1.98 0 3 C-1.98 3.33 -3.96 3.66 -6 4 C-6 4.66 -6 5.32 -6 6 C-8.81763407 8.81763407 -10.28566635 9.94608803 -14.3125 10.25 C-15.199375 10.1675 -16.08625 10.085 -17 10 C-14.38772848 7.04185281 -11.33429693 5.28123892 -7.9375 3.3125 C-6.87402344 2.68988281 -5.81054688 2.06726563 -4.71484375 1.42578125 C-2 0 -2 0 0 0 Z " fill="#800317" transform="translate(127,27)"/>
<path d="M0 0 C0.66 0.66 1.32 1.32 2 2 C5.08347826 2.16681109 5.08347826 2.16681109 8 2 C8 3.65 8 5.3 8 7 C4.00499382 5.6302836 1.19990508 3.74277578 -2 1 C-1.34 0.67 -0.68 0.34 0 0 Z " fill="#8C0419" transform="translate(19,311)"/>
<path d="M0 0 C0 0.66 0 1.32 0 2 C-1.65532623 3.01866229 -3.32260138 4.01810813 -5 5 C-5.33 5.66 -5.66 6.32 -6 7 C-7.32 6.34 -8.64 5.68 -10 5 C-8.71186658 4.16121545 -7.41936744 3.32913217 -6.125 2.5 C-5.40570313 2.0359375 -4.68640625 1.571875 -3.9453125 1.09375 C-2 0 -2 0 0 0 Z " fill="#8A0318" transform="translate(183,81)"/>
<path d="M0 0 C0.66 0.33 1.32 0.66 2 1 C-0.48952921 3.66735273 -2.63408134 5.55746343 -6 7 C-6 6.01 -6 5.02 -6 4 C-3 1.8125 -3 1.8125 0 0 Z " fill="#8D0318" transform="translate(57,152)"/>
<path d="M0 0 C0 0.66 0 1.32 0 2 C-0.99 2 -1.98 2 -3 2 C-3 2.66 -3 3.32 -3 4 C-6 6 -6 6 -8.1875 5.625 C-8.785625 5.41875 -9.38375 5.2125 -10 5 C-8.71186658 4.16121545 -7.41936744 3.32913217 -6.125 2.5 C-5.40570313 2.0359375 -4.68640625 1.571875 -3.9453125 1.09375 C-2 0 -2 0 0 0 Z " fill="#830418" transform="translate(150,14)"/>
<path d="M0 0 C-1.75 3.875 -1.75 3.875 -4 5 C-4.99 4.34 -5.98 3.68 -7 3 C-2.25 0 -2.25 0 0 0 Z " fill="#3E474D" transform="translate(115,205)"/>
<path d="M0 0 C1.32 0.66 2.64 1.32 4 2 C2.02 3.32 0.04 4.64 -2 6 C-2.66 5.67 -3.32 5.34 -4 5 C-3.01 4.67 -2.02 4.34 -1 4 C-0.26676204 1.98491642 -0.26676204 1.98491642 0 0 Z " fill="#800317" transform="translate(244,101)"/>
</svg>
