<?xml version="1.0" encoding="UTF-8"?>
<svg version="1.1" xmlns="http://www.w3.org/2000/svg" width="1766" height="403">
<path d="M0 0 C2.97337417 1.17460566 5.71918096 2.65462627 8.5390625 4.16015625 C10.86633313 5.39733962 13.23981597 6.55088183 15.6484375 7.62109375 C19.34307527 9.45210077 22.09730374 11.06163313 25 14 C26.4413088 18.75369848 26.46114025 22.94943827 26.12353516 27.87011719 C26.0004695 29.99190528 26.01989836 32.07133555 26.07421875 34.1953125 C26.05207025 41.74056725 26.05207025 41.74056725 25 45 C22.57128035 47.11776447 19.8452004 48.51337127 17 50 C15.62450023 50.81421679 14.25332656 51.63578905 12.88671875 52.46484375 C11.48765103 53.29020243 10.08790867 54.11441858 8.6875 54.9375 C7.66366211 55.54368164 7.66366211 55.54368164 6.61914062 56.16210938 C1.73470351 59.0366391 -3.21728229 61.76899052 -8.19897461 64.47094727 C-12.70316387 66.92974072 -17.16268999 69.46623494 -21.625 72 C-28.9614178 76.15867253 -36.30978043 80.29453998 -43.67480469 84.40234375 C-52.59688208 89.37932192 -61.4958954 94.38019454 -70.26123047 99.62963867 C-74.78747571 102.33121481 -79.389996 104.87131859 -84.0234375 107.38427734 C-99.02800217 115.52897952 -113.94137211 123.82595465 -128.58129883 132.61157227 C-134.63668374 136.23836829 -140.78711648 139.65109602 -147 143 C-157.51373757 148.71312924 -167.95824119 154.5031027 -178.23510742 160.63378906 C-182.79443622 163.33829876 -187.40723622 165.81949958 -192.21484375 168.0625 C-194.17972262 168.98154873 -194.17972262 168.98154873 -196 171 C-196.29380047 173.1472866 -196.29380047 173.1472866 -196.23046875 175.61328125 C-196.22853516 176.53173828 -196.22660156 177.45019531 -196.22460938 178.39648438 C-196.21236328 179.35876953 -196.20011719 180.32105469 -196.1875 181.3125 C-196.18685547 182.26318359 -196.18621094 183.21386719 -196.18554688 184.19335938 C-196.15771666 188.61836294 -195.9699385 192.66696302 -195 197 C-176.20740865 186.39997731 -157.43158932 175.77756676 -138.8125 164.875 C-131.09552828 160.35697013 -123.34102682 155.92618338 -115.50830078 151.61230469 C-109.39513115 148.23923613 -103.35059255 144.75530112 -97.31518555 141.24536133 C-91.39275495 137.8019194 -85.45141708 134.39307852 -79.5 131 C-72.85969073 127.21343763 -66.23424563 123.4030076 -59.625 119.5625 C-52.61237462 115.48951051 -45.56477438 111.48179362 -38.5 107.5 C-30.01018735 102.71401783 -21.55544333 97.87294374 -13.12890625 92.9765625 C-9.16213076 90.67172778 -5.18965137 88.37688444 -1.21484375 86.0859375 C-0.33547401 85.57904892 -0.33547401 85.57904892 0.56166077 85.06192017 C3.46830653 83.38664028 6.37525882 81.71189508 9.2824707 80.03759766 C10.87128052 79.12179932 10.87128052 79.12179932 12.4921875 78.1875 C13.90540283 77.37345703 13.90540283 77.37345703 15.34716797 76.54296875 C17.14919246 75.49485585 18.9193472 74.39036855 20.65673828 73.23828125 C21.43001465 72.82964844 22.20329102 72.42101562 23 72 C23.99 72.33 24.98 72.66 26 73 C25.99803619 73.73342621 25.99607239 74.46685242 25.99404907 75.22250366 C25.98564575 78.9686466 25.98068243 82.71478805 25.9765625 86.4609375 C25.97550129 87.19243389 25.97444008 87.92393028 25.97334671 88.67759323 C25.95955214 100.26544022 26.04156809 111.85026763 26.17007828 123.43737411 C26.27296954 133.09200563 26.31831665 142.74618799 26.3342247 152.40134048 C26.34702317 158.69093446 26.38719686 164.97817536 26.48339844 171.26708984 C26.57689812 177.4538454 26.60234326 183.63748564 26.58046341 189.82487106 C26.58408387 192.15735878 26.61200986 194.48994791 26.66541672 196.82182693 C27.04699987 214.40306842 27.04699987 214.40306842 23.64466286 218.7194519 C19.87259417 221.88862968 15.62654275 223.38138526 11 225 C9.01564088 226.09704843 7.05044223 227.23073655 5.12109375 228.421875 C4.19127686 228.96610107 3.26145996 229.51032715 2.3034668 230.07104492 C1.35769775 230.6251001 0.41192871 231.17915527 -0.5625 231.75 C-9.14799055 236.76940736 -17.75973285 241.73921538 -26.40087891 246.66210938 C-32.26014514 250.00132118 -38.10386906 253.36621247 -43.9375 256.75 C-52.70398862 261.83441957 -61.49930763 266.86603579 -70.3046875 271.8828125 C-83.13625488 279.20243638 -95.91554947 286.61184992 -108.67529297 294.0559082 C-110.68258158 295.22647406 -112.69071994 296.39558398 -114.69970703 297.56323242 C-120.06381111 300.68462686 -125.40581364 303.83773769 -130.72265625 307.0390625 C-131.81553955 307.69156982 -132.90842285 308.34407715 -134.03442383 309.01635742 C-136.14057357 310.27467436 -138.24094175 311.5427313 -140.3347168 312.8215332 C-141.75457886 313.66590942 -141.75457886 313.66590942 -143.203125 314.52734375 C-144.03489258 315.02999756 -144.86666016 315.53265137 -145.72363281 316.05053711 C-148.45761062 317.19086741 -149.29023452 317.10961764 -152 316 C-153.82498953 315.08724239 -155.62351743 314.12083879 -157.40234375 313.12109375 C-158.45172119 312.53312012 -159.50109863 311.94514648 -160.58227539 311.33935547 C-161.68949951 310.71174316 -162.79672363 310.08413086 -163.9375 309.4375 C-165.06599365 308.80215332 -166.1944873 308.16680664 -167.35717773 307.51220703 C-174.15306748 303.66847336 -180.84653296 299.71505492 -187.453125 295.5546875 C-190.87278031 293.4672292 -194.37664594 291.70510779 -198 290 C-196.49637392 285.85921016 -194.11754712 284.59287503 -190.34765625 282.49609375 C-189.78076584 282.17660263 -189.21387543 281.85711151 -188.62980652 281.52793884 C-186.77942403 280.48782526 -184.9210871 279.46286792 -183.0625 278.4375 C-181.77440329 277.71618708 -180.48697209 276.9936845 -179.20019531 276.27001953 C-176.63927982 274.83078333 -174.0758704 273.39617017 -171.51025391 271.96533203 C-167.06340234 269.48119993 -162.65239896 266.93694418 -158.25 264.375 C-157.51386475 263.94815918 -156.77772949 263.52131836 -156.01928711 263.08154297 C-151.7555814 260.60792163 -147.49812729 258.12367401 -143.2421875 255.63671875 C-132.83875826 249.55772751 -122.42100571 243.50906681 -111.94946289 237.5480957 C-104.08744694 233.06583095 -96.27287285 228.50386479 -88.46020508 223.9362793 C-82.14945218 220.24845715 -75.82114962 216.59609426 -69.46875 212.98046875 C-56.24837588 205.43234974 -43.09181228 197.76899847 -30 190 C-29.11207764 189.58967529 -28.22415527 189.17935059 -27.30932617 188.7565918 C-24.71399008 187.18390533 -24.71399008 187.18390533 -24.43237305 184.1809082 C-24.45855713 183.06546631 -24.48474121 181.95002441 -24.51171875 180.80078125 C-24.52783203 179.59228516 -24.54394531 178.38378906 -24.56054688 177.13867188 C-24.62338867 175.2447168 -24.62338867 175.2447168 -24.6875 173.3125 C-24.71005859 172.03826172 -24.73261719 170.76402344 -24.75585938 169.45117188 C-24.81487738 166.2996104 -24.89717025 163.15038721 -25 160 C-42.83960798 170.0624893 -60.66330412 180.15112781 -78.375 190.4375 C-86.20156302 194.98248352 -94.07518363 199.4403804 -101.96044922 203.88256836 C-109.33364005 208.04272743 -116.67218461 212.26049844 -124 216.5 C-132.28769578 221.29483957 -140.59539092 226.0504479 -148.9375 230.75 C-156.63426131 235.08606507 -164.30101087 239.46886859 -171.93920898 243.90722656 C-177.77765745 247.29828497 -183.63493313 250.65521342 -189.5 254 C-196.55202331 258.02382468 -203.5955466 262.06185707 -210.625 266.125 C-211.82479492 266.81722656 -211.82479492 266.81722656 -213.04882812 267.5234375 C-214.15774414 268.16539062 -214.15774414 268.16539062 -215.2890625 268.8203125 C-215.93568848 269.19430176 -216.58231445 269.56829102 -217.24853516 269.95361328 C-218.86364441 270.91853637 -220.43458312 271.95638875 -222 273 C-228.55248389 272.93398001 -232.9774576 269.97297298 -238.375 266.5 C-239.19355469 265.98824219 -240.01210937 265.47648437 -240.85546875 264.94921875 C-246.7651716 261.2348284 -246.7651716 261.2348284 -248 260 C-248.14785084 258.47703797 -248.22832678 256.94747812 -248.28175354 255.41828918 C-248.31781204 254.42744827 -248.35387054 253.43660736 -248.39102173 252.41574097 C-248.44218643 250.77099289 -248.44218643 250.77099289 -248.49438477 249.09301758 C-248.53308182 247.94493118 -248.57177887 246.79684479 -248.61164856 245.6139679 C-248.9519367 234.9798306 -249.16227939 224.34320604 -249.32562351 213.70506763 C-249.43803537 206.55667972 -249.59514314 199.41506486 -249.86547852 192.27075195 C-250.10142507 186.03387781 -250.25070772 179.80177645 -250.29879421 173.56052321 C-250.32705836 170.25829079 -250.40842925 166.97202379 -250.56808662 163.67316628 C-251.33951879 147.0081045 -251.33951879 147.0081045 -248 140 C-242.22775228 133.88998553 -234.66014446 130.53994516 -227.02291679 127.31665611 C-222.48036726 125.33811154 -218.23471026 122.89232293 -213.9375 120.4375 C-212.30908784 119.54489242 -210.67907748 118.65518892 -209.046875 117.76953125 C-200.62866698 113.16799701 -192.29880327 108.40782823 -183.95410156 103.67480469 C-178.99278504 100.86202524 -174.02760038 98.05609314 -169.0625 95.25 C-167.61266724 94.43039795 -167.61266724 94.43039795 -166.13354492 93.59423828 C-160.7591246 90.5567027 -155.38186287 87.52432736 -150 84.5 C-136.1417437 76.71059228 -122.29716814 68.89718389 -108.5 61 C-94.03723585 52.72184416 -79.52262727 44.53550769 -64.99047852 36.37988281 C-59.51851746 33.30334553 -54.07185503 30.1832119 -48.625 27.0625 C-39.88007678 22.05489911 -31.09186533 17.13142357 -22.27197266 12.25732422 C-19.82913858 10.9054442 -17.38890331 9.54896138 -14.94921875 8.19140625 C-14.12123779 7.73072754 -13.29325684 7.27004883 -12.44018555 6.79541016 C-10.84649307 5.90855497 -9.25290134 5.02151871 -7.65942383 4.13427734 C-2.22273114 1.11136557 -2.22273114 1.11136557 0 0 Z " fill="#55616A" transform="translate(324,86)"/>
<path d="M0 0 C3.49873508 1.74936754 6.80426798 3.7482771 10.125 5.8125 C12.0706901 6.99371164 14.01733106 8.17335826 15.96484375 9.3515625 C16.95726074 9.95516602 17.94967773 10.55876953 18.97216797 11.18066406 C23.82990251 14.09953503 28.75672288 16.89437044 33.6875 19.6875 C35.42104613 20.66973822 37.15415634 21.6527464 38.88671875 22.63671875 C39.61076904 23.04623779 40.33481934 23.45575684 41.08081055 23.87768555 C42.75733192 24.85809119 44.3840394 25.92269294 46 27 C46 27.99 46 28.98 46 30 C44.91074219 30.5259375 43.82148438 31.051875 42.69921875 31.59375 C37.25910115 34.31559949 32.04970516 37.41046841 26.8125 40.5 C18.92210425 45.13064761 11.01486073 49.72655721 3.0625 54.25 C-3.2985225 57.87088973 -9.63527995 61.52765709 -15.9375 65.25 C-24.51165961 70.31419397 -33.13783404 75.2818986 -41.828125 80.14453125 C-49.41674501 84.39134786 -56.9543429 88.70962615 -64.44165039 93.1328125 C-76.4394061 100.21924595 -88.51955373 107.16199771 -100.625 114.0625 C-107.3550227 117.900833 -114.0678404 121.76635674 -120.75 125.6875 C-121.4713916 126.10974854 -122.1927832 126.53199707 -122.93603516 126.96704102 C-126.15151281 128.7338851 -126.15151281 128.7338851 -129 131 C-129.15786308 132.85174706 -129.25107356 134.7090911 -129.31640625 136.56640625 C-129.37924805 138.2534668 -129.37924805 138.2534668 -129.44335938 139.97460938 C-129.48267578 141.15861328 -129.52199219 142.34261719 -129.5625 143.5625 C-129.62727539 145.34430664 -129.62727539 145.34430664 -129.69335938 147.16210938 C-129.79983546 150.10794784 -129.90184841 153.0538743 -130 156 C-123.06045881 151.99844979 -116.12171745 147.99551992 -109.18400574 143.99079895 C-105.62430604 141.93632635 -102.06283502 139.88496706 -98.5 137.8359375 C-91.58660135 133.85423058 -84.7050722 129.85079799 -77.9375 125.625 C-74.47609109 123.47190835 -71.04649543 121.45712301 -67.375 119.6875 C-57.47081752 114.90395643 -48.08437222 109.01114542 -38.625 103.4140625 C-37.22925202 102.58839737 -35.83341962 101.76287492 -34.4375 100.9375 C-33.4019397 100.32515503 -33.4019397 100.32515503 -32.34545898 99.70043945 C-27.27539808 96.71642058 -22.15184247 93.84010408 -17 91 C-6.20075225 85.04468668 4.40530614 78.77841683 14.96191406 72.40454102 C20.60310665 69.00010001 26.27776147 65.69888453 32.08203125 62.578125 C35.6147228 60.66753948 39.12266442 58.71557061 42.625 56.75 C43.29225098 56.37552734 43.95950195 56.00105469 44.64697266 55.61523438 C50.65192891 52.22775016 56.5904979 48.73038219 62.50439453 45.18652344 C65.31171045 43.51593267 67.89050027 42.03649991 71 41 C73.56386184 42.30640693 75.93945015 43.66998439 78.375 45.1875 C79.90663738 46.11609375 81.43923475 47.04310542 82.97265625 47.96875 C83.78621582 48.46246094 84.59977539 48.95617188 85.43798828 49.46484375 C89.85473028 52.11135353 94.33518111 54.64529692 98.8125 57.1875 C106.23456505 61.41454276 113.63701095 65.67062342 121 70 C119.85219493 73.44341521 119.39738295 73.64475059 116.37890625 75.34765625 C115.61755371 75.78279541 114.85620117 76.21793457 114.07177734 76.66625977 C113.24371582 77.12701904 112.4156543 77.58777832 111.5625 78.0625 C110.70865723 78.54710693 109.85481445 79.03171387 108.97509766 79.53100586 C102.55514389 83.16432838 96.09723924 86.7309533 89.63964844 90.296875 C79.63835635 95.83416505 69.82359205 101.68715954 60.03808594 107.59545898 C54.39689335 110.99989999 48.72223853 114.30111547 42.91796875 117.421875 C33.05635884 122.75532936 23.34901348 128.35538468 13.69970703 134.06201172 C3.63178469 140.00556073 -6.54685943 145.75719487 -16.70703125 151.54101562 C-28.52556876 158.2712537 -40.29220918 165.07901309 -52 172 C-59.63621644 176.50998018 -67.33788252 180.89360545 -75.0625 185.25 C-82.24683948 189.30301587 -89.422725 193.36889085 -96.5625 197.5 C-97.68398437 198.14884155 -97.68398437 198.14884155 -98.828125 198.81079102 C-103.23589086 201.37027495 -107.62305262 203.96237134 -112 206.57421875 C-113.00861084 207.17492187 -114.01722168 207.775625 -115.05639648 208.39453125 C-117.02967774 209.57148062 -119.00062885 210.75234734 -120.96899414 211.9375 C-121.85707764 212.46730469 -122.74516113 212.99710938 -123.66015625 213.54296875 C-124.45043213 214.01758545 -125.24070801 214.49220215 -126.05493164 214.98120117 C-128 216 -128 216 -130 216 C-130 253.29 -130 290.58 -130 329 C-134.52399589 328.09520082 -136.30159048 327.38116778 -140 325 C-142.01887039 323.85071164 -144.03992969 322.70526451 -146.0625 321.5625 C-154.73931719 316.63408689 -163.27569332 311.47103044 -171.81860352 306.31518555 C-174.00934195 304.92114167 -174.00934195 304.92114167 -176.59581375 303.91991234 C-179 302 -179 302 -179.63479233 298.47449684 C-179.66499343 296.97203359 -179.66729085 295.46886476 -179.64837646 293.96621704 C-179.65758755 293.13822047 -179.66679863 292.31022389 -179.67628884 291.45713651 C-179.70098859 288.67234995 -179.68978345 285.88886144 -179.67871094 283.10400391 C-179.68875647 281.11168803 -179.70090191 279.1193818 -179.71499634 277.12709045 C-179.74640509 271.70755881 -179.74571403 266.28847018 -179.73749065 260.86887026 C-179.73333879 256.34834466 -179.74429139 251.82790683 -179.75513482 247.30739629 C-179.78030334 236.64398762 -179.77913148 225.98080051 -179.76171875 215.31738281 C-179.74419846 204.30914893 -179.7705765 193.30163942 -179.81868529 182.29351294 C-179.85842778 172.84966578 -179.871103 163.40604764 -179.86197114 153.96212137 C-179.85678038 148.31847036 -179.86190203 142.67530523 -179.89293671 137.03172684 C-179.92092908 131.72415816 -179.91514477 126.41768736 -179.88322067 121.11015129 C-179.87715499 119.16105428 -179.88305698 117.21187825 -179.90172958 115.26286125 C-179.92531446 112.60321335 -179.90585457 109.94724917 -179.87542725 107.28775024 C-179.89240654 106.51449831 -179.90938583 105.74124637 -179.92687964 104.94456255 C-179.85446565 101.90164552 -179.63451261 99.649889 -177.45777655 97.42040324 C-175.68747895 96.13559814 -173.92523444 95.03500525 -172 94 C-170.95090454 93.41436279 -170.95090454 93.41436279 -169.88061523 92.81689453 C-169.0096521 92.41639893 -169.0096521 92.41639893 -168.12109375 92.0078125 C-163.63237596 89.85245125 -159.35874501 87.38845555 -155.0625 84.875 C-154.23911133 84.39562988 -153.41572266 83.91625977 -152.56738281 83.42236328 C-150.04314412 81.95126135 -147.52123925 80.47623557 -145 79 C-144.24380371 78.55785156 -143.48760742 78.11570312 -142.70849609 77.66015625 C-135.79485642 73.61554642 -128.89617946 69.5485743 -122.0402832 65.40673828 C-116.39935713 61.99989217 -110.7230969 58.69934604 -104.91796875 55.578125 C-91.40448553 48.26962805 -78.13172956 40.51729104 -64.98046875 32.578125 C-64.33086182 32.18625 -63.68125488 31.794375 -63.01196289 31.390625 C-61.25888177 30.3309284 -59.50824408 29.26719246 -57.7578125 28.203125 C-54.83495954 26.46030585 -51.86311193 24.82415142 -48.87109375 23.203125 C-42.49487618 19.74679639 -36.21482001 16.13211386 -29.9375 12.5 C-28.27750977 11.54287109 -28.27750977 11.54287109 -26.58398438 10.56640625 C-24.94719727 9.62087891 -24.94719727 9.62087891 -23.27734375 8.65625 C-21.6838208 7.74166016 -21.6838208 7.74166016 -20.05810547 6.80859375 C-18.08080618 5.63919944 -16.12889727 4.42526439 -14.21142578 3.16015625 C-6.09904207 -2.1530026 -6.09904207 -2.1530026 0 0 Z " fill="#DA0026" transform="translate(179,1)"/>
<path d="M0 0 C10.56 0 21.12 0 32 0 C41.30575182 17.41773547 50.10049161 35.08271169 58.91131592 52.75396729 C60.9549946 56.85170492 63.00104659 60.9482572 65.046875 65.04492188 C69.03352039 73.02881605 73.01761255 81.0139812 77 89 C79.27911437 86.12341019 81.00657024 83.23508654 82.64453125 79.95385742 C83.14936035 78.94727585 83.65418945 77.94069427 84.17431641 76.90361023 C84.71491699 75.81522354 85.25551758 74.72683685 85.8125 73.60546875 C86.38145996 72.46709061 86.95041992 71.32871246 87.53662109 70.15583801 C88.74613411 67.7352475 89.95295463 65.31334031 91.15771484 62.89038086 C92.96056516 59.26477701 94.77111599 55.6430669 96.58203125 52.02148438 C103.44686486 38.27023778 110.19126777 24.46824797 116.75830078 10.57221985 C118.46828891 7.02992447 120.24091411 3.51817179 122 0 C132.89 0 143.78 0 155 0 C155 47.85 155 95.7 155 145 C145.76 145 136.52 145 127 145 C126.67 113.98 126.34 82.96 126 51 C121.71 59.58 117.42 68.16 113 77 C108.0625 86.375 108.0625 86.375 105.6953125 90.828125 C101.50881875 98.78731234 97.54621049 106.86396093 93.55688477 114.92333984 C92.97994873 116.08559082 92.4030127 117.2478418 91.80859375 118.4453125 C91.29095459 119.49219238 90.77331543 120.53907227 90.23999023 121.61767578 C89 124 89 124 88 125 C86.36527118 125.08700342 84.72685945 125.10701063 83.08984375 125.09765625 C82.10048828 125.09443359 81.11113281 125.09121094 80.09179688 125.08789062 C79.05087891 125.07951172 78.00996094 125.07113281 76.9375 125.0625 C75.89271484 125.05798828 74.84792969 125.05347656 73.77148438 125.04882812 C71.1809334 125.03699913 68.59049441 125.02051689 66 125 C65.56768066 124.13012451 65.13536133 123.26024902 64.68994141 122.36401367 C54.89426029 102.59297267 54.89426029 102.59297267 44.75 83 C38.99212781 72.09034744 33.51676737 61.03353474 28 50 C27.67 81.35 27.34 112.7 27 145 C18.09 145 9.18 145 0 145 C0 97.15 0 49.3 0 0 Z " fill="#D90026" transform="translate(1483,126)"/>
<path d="M0 0 C79.37046371 0 79.37046371 0 94.3125 13.75 C102.19055628 22.07368371 105.39612495 32.53507752 105.3125 43.8125 C105.30686035 44.60785156 105.3012207 45.40320313 105.29541016 46.22265625 C105.06795362 57.24866828 101.68266561 66.71851586 94.18359375 75.0078125 C89.35941578 79.51037861 83.96886854 82.28777083 78 85 C84.3100555 98.48421151 90.86374768 111.83012079 97.5625 125.125 C99.35775304 128.68896124 101.15034656 132.25424246 102.94140625 135.8203125 C103.55526939 137.03559128 103.55526939 137.03559128 104.18153381 138.27542114 C107 143.88728384 107 143.88728384 107 145 C96.44 145 85.88 145 75 145 C68.44871485 131.46547684 61.91446494 117.92595624 55.55673218 104.29943848 C54.97749113 103.05867541 54.39694554 101.81852052 53.81509399 100.57897949 C53.00172655 98.84484568 52.19408217 97.108031 51.38671875 95.37109375 C50.92483154 94.38036865 50.46294434 93.38964355 49.98706055 92.36889648 C49 90 49 90 49 88 C42.07 88 35.14 88 28 88 C28 106.81 28 125.62 28 145 C18.76 145 9.52 145 0 145 C0 97.15 0 49.3 0 0 Z M28 23 C28 37.85 28 52.7 28 68 C35.6725 68.0928125 35.6725 68.0928125 43.5 68.1875 C45.09779297 68.21481201 46.69558594 68.24212402 48.34179688 68.27026367 C56.8516788 68.32010114 63.79264431 68.3467602 70.75 62.8125 C76.33866902 55.82666373 77.66792548 50.40835844 77.38671875 41.3515625 C76.71443134 35.52507162 74.79652151 31.89917988 70.8125 27.6875 C61.89925472 22.33955283 53.05177359 22.63271191 42.9375 22.8125 C38.008125 22.874375 33.07875 22.93625 28 23 Z " fill="#D70026" transform="translate(568,126)"/>
<path d="M0 0 C6.42523615 6.28245313 11.68069346 14.69554765 12.8125 23.75 C12.8125 26.06 12.8125 28.37 12.8125 30.75 C3.2425 30.75 -6.3275 30.75 -16.1875 30.75 C-17.5075 27.12 -18.8275 23.49 -20.1875 19.75 C-24.31933491 15.44234233 -28.28865854 13.06920661 -34.23828125 12.4140625 C-41.05475146 12.33242813 -46.66839211 12.42421273 -52.1875 16.75 C-56.46535156 21.13479785 -56.65155399 25.1226968 -56.71875 30.96875 C-55.80905842 35.73125298 -53.56060074 38.78945457 -49.61328125 41.55078125 C-41.82689959 45.33162153 -33.92254325 48.33103575 -25.75 51.1875 C5.29576597 62.08563916 5.29576597 62.08563916 13.25 76.8125 C18.21050875 88.36436969 18.1402516 99.95289796 14.07421875 111.80859375 C12.24316764 116.07726708 9.93087705 119.33715151 6.8125 122.75 C6.31105469 123.35328125 5.80960938 123.9565625 5.29296875 124.578125 C-3.18537089 134.06726426 -15.87083946 137.92564853 -28.24072266 138.9140625 C-44.43675496 139.80825338 -61.31431697 137.29125642 -74.08984375 126.65625 C-81.79577886 119.65346353 -87.76383944 111.33658224 -89.1875 100.75 C-89.1875 97.78 -89.1875 94.81 -89.1875 91.75 C-79.9475 91.75 -70.7075 91.75 -61.1875 91.75 C-60.1975 95.215 -60.1975 95.215 -59.1875 98.75 C-56.8367207 105.37174962 -53.27183674 109.24689703 -47.1875 112.75 C-39.35548535 116.00102495 -30.12065027 115.84340827 -22.19921875 112.87109375 C-17.71876611 110.37422014 -14.79085908 106.56007725 -13.1875 101.75 C-12.51329159 96.14633336 -13.19193837 91.74076819 -15.62890625 86.671875 C-20.21744383 81.01382867 -26.44728265 78.59802826 -33.125 76.3125 C-34.81128131 75.7111713 -36.49747784 75.10960483 -38.18359375 74.5078125 C-39.85147804 73.92163462 -41.51944403 73.33568916 -43.1875 72.75 C-75.34386777 61.3533335 -75.34386777 61.3533335 -82.6875 47.75 C-87.43039472 36.40732253 -87.68555017 24.21662033 -83.1875 12.75 C-77.68537618 1.86919744 -68.57365032 -5.25322887 -57.1875 -9.25 C-37.51338981 -15.29702088 -16.62378144 -11.73443396 0 0 Z " fill="#D80026" transform="translate(1749.1875,135.25)"/>
<path d="M0 0 C6.42523615 6.28245313 11.68069346 14.69554765 12.8125 23.75 C12.8125 26.06 12.8125 28.37 12.8125 30.75 C3.2425 30.75 -6.3275 30.75 -16.1875 30.75 C-17.5075 27.12 -18.8275 23.49 -20.1875 19.75 C-24.31933491 15.44234233 -28.28865854 13.06920661 -34.23828125 12.4140625 C-41.05475146 12.33242813 -46.66839211 12.42421273 -52.1875 16.75 C-56.46535156 21.13479785 -56.65155399 25.1226968 -56.71875 30.96875 C-55.80905842 35.73125298 -53.56060074 38.78945457 -49.61328125 41.55078125 C-41.82689959 45.33162153 -33.92254325 48.33103575 -25.75 51.1875 C5.29576597 62.08563916 5.29576597 62.08563916 13.25 76.8125 C18.21050875 88.36436969 18.1402516 99.95289796 14.07421875 111.80859375 C12.24316764 116.07726708 9.93087705 119.33715151 6.8125 122.75 C6.31105469 123.35328125 5.80960938 123.9565625 5.29296875 124.578125 C-3.18537089 134.06726426 -15.87083946 137.92564853 -28.24072266 138.9140625 C-44.43675496 139.80825338 -61.31431697 137.29125642 -74.08984375 126.65625 C-81.79577886 119.65346353 -87.76383944 111.33658224 -89.1875 100.75 C-89.1875 97.78 -89.1875 94.81 -89.1875 91.75 C-79.9475 91.75 -70.7075 91.75 -61.1875 91.75 C-60.1975 95.215 -60.1975 95.215 -59.1875 98.75 C-56.8367207 105.37174962 -53.27183674 109.24689703 -47.1875 112.75 C-39.35548535 116.00102495 -30.12065027 115.84340827 -22.19921875 112.87109375 C-17.71876611 110.37422014 -14.79085908 106.56007725 -13.1875 101.75 C-12.51329159 96.14633336 -13.19193837 91.74076819 -15.62890625 86.671875 C-20.21744383 81.01382867 -26.44728265 78.59802826 -33.125 76.3125 C-34.81128131 75.7111713 -36.49747784 75.10960483 -38.18359375 74.5078125 C-39.85147804 73.92163462 -41.51944403 73.33568916 -43.1875 72.75 C-75.34386777 61.3533335 -75.34386777 61.3533335 -82.6875 47.75 C-87.43039472 36.40732253 -87.68555017 24.21662033 -83.1875 12.75 C-77.68537618 1.86919744 -68.57365032 -5.25322887 -57.1875 -9.25 C-37.51338981 -15.29702088 -16.62378144 -11.73443396 0 0 Z " fill="#D80026" transform="translate(1202.1875,135.25)"/>
<path d="M0 0 C9.62557223 7.12028631 15.12164082 15.90781357 17.28125 27.6875 C17.28125 29.6675 17.28125 31.6475 17.28125 33.6875 C7.71125 33.6875 -1.85875 33.6875 -11.71875 33.6875 C-12.70875 30.7175 -13.69875 27.7475 -14.71875 24.6875 C-17.86795423 19.96369366 -21.09303629 16.83952328 -26.71875 15.6875 C-34.25402919 15.05516888 -40.01693222 14.94208694 -46.71875 18.6875 C-47.70875 19.0175 -48.69875 19.3475 -49.71875 19.6875 C-52.5729954 25.06076064 -52.33807655 30.76770337 -51.71875 36.6875 C-49.16902395 42.78467098 -44.42924331 44.95094435 -38.71875 47.6875 C-34.54098838 49.33779457 -30.31530039 50.83383867 -26.07330322 52.30819702 C9.9314313 64.89092645 9.9314313 64.89092645 18.31640625 81.265625 C22.70811962 92.28935896 22.07274683 103.64084569 18.28125 114.6875 C12.06902543 127.92142083 2.48925825 134.36567877 -10.71875 139.6875 C-26.37903653 144.83695822 -46.36533324 142.34027938 -61.03125 135.625 C-71.86894279 129.7714213 -79.75080632 121.46646567 -83.71875 109.6875 C-84.80768008 104.70692381 -85.24777657 99.77401306 -85.71875 94.6875 C-76.14875 94.6875 -66.57875 94.6875 -56.71875 94.6875 C-55.72875 97.9875 -54.73875 101.2875 -53.71875 104.6875 C-49.99193039 111.3957753 -45.51423707 114.94743569 -38.24609375 117.1484375 C-29.22361641 119.0728608 -21.71025332 117.68240199 -13.90625 113 C-10.40802115 109.30187236 -8.79266662 105.45937314 -8.65625 100.34375 C-9.14117332 94.28220856 -10.82252907 90.68621936 -15.03125 86.25 C-22.5269406 80.42001842 -32.41962302 77.75563602 -41.31030273 74.77099609 C-55.42475842 70.02035998 -70.13457195 64.91718145 -78.125 51.2890625 C-82.77564085 41.29018467 -83.62411907 29.0750551 -79.96875 18.625 C-78.27670674 14.6336645 -76.4298534 11.09574428 -73.71875 7.6875 C-73.28433594 7.13707031 -72.84992187 6.58664063 -72.40234375 6.01953125 C-55.313331 -13.38228021 -20.48500439 -13.3019509 0 0 Z " fill="#D80026" transform="translate(945.71875,132.3125)"/>
<path d="M0 0 C31.68 0 63.36 0 96 0 C96 7.26 96 14.52 96 22 C73.56 22 51.12 22 28 22 C28 34.87 28 47.74 28 61 C48.13 61 68.26 61 89 61 C89 67.93 89 74.86 89 82 C68.87 82 48.74 82 28 82 C28 95.53 28 109.06 28 123 C32.82496094 122.98839844 37.64992188 122.97679687 42.62109375 122.96484375 C45.66992321 122.95973683 48.71874743 122.95492305 51.76757812 122.95117188 C56.61142059 122.94518404 61.45524422 122.93808535 66.29907227 122.92456055 C70.20235971 122.91372957 74.10562699 122.90772272 78.0089283 122.90512276 C79.50133647 122.90326889 80.99374348 122.899649 82.48614311 122.89426994 C84.56948139 122.88705669 86.65273531 122.88600917 88.73608398 122.88647461 C89.92411118 122.884254 91.11213837 122.88203339 92.33616638 122.87974548 C95 123 95 123 96 124 C96 130.93 96 137.86 96 145 C64.32 145 32.64 145 0 145 C0 97.15 0 49.3 0 0 Z " fill="#D70026" transform="translate(1363,126)"/>
<path d="M0 0 C31.35 0 62.7 0 95 0 C95 7.26 95 14.52 95 22 C72.56 22 50.12 22 27 22 C27 34.87 27 47.74 27 61 C47.46 61 67.92 61 89 61 C89 67.93 89 74.86 89 82 C68.54 82 48.08 82 27 82 C27 95.53 27 109.06 27 123 C49.44 123 71.88 123 95 123 C95 130.26 95 137.52 95 145 C63.65 145 32.3 145 0 145 C0 97.15 0 49.3 0 0 Z " fill="#DA0026" transform="translate(697,126)"/>
<path d="M0 0 C31.02 0 62.04 0 94 0 C94 7.26 94 14.52 94 22 C71.89 22 49.78 22 27 22 C27 35.2 27 48.4 27 62 C45.15 62 63.3 62 82 62 C82 68.93 82 75.86 82 83 C81 84 81 84 78.82969666 84.12025452 C77.87261307 84.11803391 76.91552948 84.11581329 75.92944336 84.11352539 C74.83321655 84.11340454 73.73698975 84.11328369 72.60754395 84.11315918 C70.86628235 84.10548523 70.86628235 84.10548523 69.08984375 84.09765625 C68.02930786 84.09664917 66.96877197 84.09564209 65.87609863 84.09460449 C61.89655483 84.08935387 57.91702638 84.07539276 53.9375 84.0625 C45.048125 84.041875 36.15875 84.02125 27 84 C27 104.13 27 124.26 27 145 C18.09 145 9.18 145 0 145 C0 97.15 0 49.3 0 0 Z " fill="#D90026" transform="translate(400,126)"/>
<path d="M0 0 C10.23 0 20.46 0 31 0 C45.48041639 29.87929373 45.48041639 29.87929373 52.1875 43.875 C52.61973877 44.77484619 53.05197754 45.67469238 53.49731445 46.60180664 C55.46767616 50.72080274 57.41114064 54.85109977 59.30078125 59.0078125 C59.62860596 59.72855957 59.95643066 60.44930664 60.29418945 61.19189453 C61 63 61 63 61 65 C61.66 65 62.32 65 63 65 C63.27223389 64.13262207 63.54446777 63.26524414 63.82495117 62.37158203 C64.95743639 59.12212829 66.28582413 56.14200336 67.80078125 53.0546875 C68.35999268 51.90782471 68.9192041 50.76096191 69.49536133 49.5793457 C69.79165436 48.97547028 70.08794739 48.37159485 70.39321899 47.74942017 C71.96895427 44.53648532 73.53197156 41.31739376 75.09375 38.09765625 C75.41523514 37.43507309 75.73672028 36.77248993 76.06794739 36.08982849 C81.15766727 25.57202608 86.02874564 14.9504485 90.9152832 4.3371582 C91.59056872 2.88217097 92.28264397 1.43471206 93 0 C103.23 0 113.46 0 124 0 C117.33361714 14.36720444 110.18930749 28.42813435 102.84814453 42.4609375 C99.26064601 49.33073651 95.70631319 56.21777466 92.14575195 63.1015625 C91.61812256 64.11992187 91.09049316 65.13828125 90.546875 66.1875 C90.00595215 67.26217529 89.4650293 68.33685059 88.90771484 69.4440918 C87.5404401 72.08779789 86.01098096 74.56815071 84.39306641 77.06567383 C75.75464938 90.93578794 75.62365783 103.66768695 75.875 119.6875 C75.87694683 122.15429748 75.87437216 124.62110284 75.8671875 127.08789062 C75.851145 133.06171692 75.92735657 139.02400985 76 145 C66.76 145 57.52 145 48 145 C48.10054687 139.66134766 48.10054687 139.66134766 48.203125 134.21484375 C48.22725482 130.68287068 48.23052143 127.15143196 48.23193359 123.61938477 C48.24377681 121.20576947 48.27656121 118.79214598 48.33251953 116.37915039 C48.7239265 98.64398389 45.81550092 86.50687148 36.46484375 71.400177 C34.50117572 68.18266602 32.81127606 64.88272075 31.1171875 61.515625 C30.57553955 60.46906738 30.0338916 59.42250977 29.47583008 58.34423828 C28.94755615 57.32313965 28.41928223 56.30204102 27.875 55.25 C23.87632415 47.52989863 19.86646032 39.81622723 15.8125 32.125 C15.42513672 31.38934814 15.03777344 30.65369629 14.63867188 29.89575195 C12.41353114 25.67270511 10.17956418 21.45444351 7.94140625 17.23828125 C6.91917793 15.30473662 5.8970407 13.37114382 4.875 11.4375 C4.14567261 10.06972412 4.14567261 10.06972412 3.40161133 8.67431641 C2.95712646 7.83175293 2.5126416 6.98918945 2.0546875 6.12109375 C1.65749512 5.3727124 1.26030273 4.62433105 0.85107422 3.85327148 C0 2 0 2 0 0 Z " fill="#D70026" transform="translate(978,126)"/>
<path d="M0 0 C36.63 0 73.26 0 111 0 C111 7.26 111 14.52 111 22 C97.14 22 83.28 22 69 22 C69 62.59 69 103.18 69 145 C60.09 145 51.18 145 42 145 C42 104.41 42 63.82 42 22 C28.14 22 14.28 22 0 22 C0 14.74 0 7.48 0 0 Z " fill="#DB0127" transform="translate(1233,126)"/>
<path d="M0 0 C8.91 0 17.82 0 27 0 C27 47.85 27 95.7 27 145 C18.09 145 9.18 145 0 145 C0 97.15 0 49.3 0 0 Z " fill="#DB0027" transform="translate(514,126)"/>
<path d="M0 0 C0.99 0.33 1.98 0.66 3 1 C3.10430073 30.11073387 2.81725902 59.21731034 2.53643799 88.32641602 C2.47494308 94.73713095 2.41529452 101.14786306 2.35546875 107.55859375 C2.23873806 120.03907951 2.12003499 132.51954561 2 145 C-0.475 145.99 -0.475 145.99 -3 147 C-2.51322375 146.62362742 -2.02644751 146.24725485 -1.52492046 145.85947704 C0.59122831 143.27906045 0.38409842 141.56329717 0.39872742 138.24836731 C0.41753464 136.44996651 0.41753464 136.44996651 0.4367218 134.61523438 C0.43456917 132.63970581 0.43456917 132.63970581 0.43237305 130.62426758 C0.44138814 129.22481926 0.45171474 127.82537886 0.46325684 126.4259491 C0.49088294 122.62457436 0.50011889 118.8233492 0.50611091 115.02188706 C0.51548005 111.04998717 0.54168219 107.07819966 0.56611633 103.10636902 C0.60982533 95.58413971 0.63834521 88.06193214 0.66143972 80.53961438 C0.68846786 71.97616079 0.73238079 63.41282002 0.77772844 54.84944689 C0.8706377 37.2330241 0.94228962 19.61657148 1 2 C-0.32 2.33 -1.64 2.66 -3 3 C-2.01 2.01 -1.02 1.02 0 0 Z " fill="#3F484E" transform="translate(347,158)"/>
<path d="M0 0 C0.99 0.33 1.98 0.66 3 1 C3.04950115 5.76886487 3.08576738 10.53757959 3.10986328 15.30664062 C3.11991023 16.92841192 3.13355015 18.55016516 3.15087891 20.171875 C3.17518493 22.50525374 3.18649613 24.8383926 3.1953125 27.171875 C3.20563507 27.89493835 3.21595764 28.61800171 3.22659302 29.36297607 C3.22748939 33.40036759 2.86326516 35.27346969 1 39 C1 26.79 1 14.58 1 2 C-0.32 2.33 -1.64 2.66 -3 3 C-2.01 2.01 -1.02 1.02 0 0 Z " fill="#2F353A" transform="translate(347,158)"/>
<path d="M0 0 C1.65 0 3.3 0 5 0 C4.2733313 0.56424683 4.2733313 0.56424683 3.53198242 1.13989258 C1.42350188 3.69997437 1.57177677 5.4719952 1.48828125 8.76171875 C1.45283203 9.87998047 1.41738281 10.99824219 1.38085938 12.15039062 C1.35830078 13.31763672 1.33574219 14.48488281 1.3125 15.6875 C1.27833984 16.86634766 1.24417969 18.04519531 1.20898438 19.25976562 C1.12642075 22.17308225 1.05729678 25.08609466 1 28 C1.83144531 27.44119141 1.83144531 27.44119141 2.6796875 26.87109375 C3.40414062 26.39800781 4.12859375 25.92492187 4.875 25.4375 C5.59429687 24.96183594 6.31359375 24.48617187 7.0546875 23.99609375 C7.69664063 23.66738281 8.33859375 23.33867187 9 23 C9.66 23.33 10.32 23.66 11 24 C8.54300608 26.63249349 6.43431346 28.78137264 3 30 C2.01 29.67 1.02 29.34 0 29 C0 19.43 0 9.86 0 0 Z " fill="#40020C" transform="translate(48,129)"/>
<path d="M0 0 C0 0.99 0 1.98 0 3 C-1.98 3.33 -3.96 3.66 -6 4 C-6 4.66 -6 5.32 -6 6 C-8.81763407 8.81763407 -10.28566635 9.94608803 -14.3125 10.25 C-15.199375 10.1675 -16.08625 10.085 -17 10 C-14.38772848 7.04185281 -11.33429693 5.28123892 -7.9375 3.3125 C-6.87402344 2.68988281 -5.81054688 2.06726563 -4.71484375 1.42578125 C-2 0 -2 0 0 0 Z " fill="#800317" transform="translate(127,27)"/>
<path d="M0 0 C0.99 0.33 1.98 0.66 3 1 C3 5.62 3 10.24 3 15 C2.01 15.495 2.01 15.495 1 16 C1 11.38 1 6.76 1 2 C-0.32 2.33 -1.64 2.66 -3 3 C-2.01 2.01 -1.02 1.02 0 0 Z " fill="#282D31" transform="translate(347,158)"/>
<path d="M0 0 C0.66 0.66 1.32 1.32 2 2 C5.08347826 2.16681109 5.08347826 2.16681109 8 2 C8 3.65 8 5.3 8 7 C4.00499382 5.6302836 1.19990508 3.74277578 -2 1 C-1.34 0.67 -0.68 0.34 0 0 Z " fill="#8C0419" transform="translate(19,311)"/>
<path d="M0 0 C0 0.66 0 1.32 0 2 C-1.65532623 3.01866229 -3.32260138 4.01810813 -5 5 C-5.33 5.66 -5.66 6.32 -6 7 C-7.32 6.34 -8.64 5.68 -10 5 C-8.71186658 4.16121545 -7.41936744 3.32913217 -6.125 2.5 C-5.40570313 2.0359375 -4.68640625 1.571875 -3.9453125 1.09375 C-2 0 -2 0 0 0 Z " fill="#8A0318" transform="translate(183,81)"/>
<path d="M0 0 C0.66 0.33 1.32 0.66 2 1 C-0.48952921 3.66735273 -2.63408134 5.55746343 -6 7 C-6 6.01 -6 5.02 -6 4 C-3 1.8125 -3 1.8125 0 0 Z " fill="#8D0318" transform="translate(57,152)"/>
<path d="M0 0 C0 0.66 0 1.32 0 2 C-0.99 2 -1.98 2 -3 2 C-3 2.66 -3 3.32 -3 4 C-6 6 -6 6 -8.1875 5.625 C-8.785625 5.41875 -9.38375 5.2125 -10 5 C-8.71186658 4.16121545 -7.41936744 3.32913217 -6.125 2.5 C-5.40570313 2.0359375 -4.68640625 1.571875 -3.9453125 1.09375 C-2 0 -2 0 0 0 Z " fill="#830418" transform="translate(150,14)"/>
<path d="M0 0 C-1.75 3.875 -1.75 3.875 -4 5 C-4.99 4.34 -5.98 3.68 -7 3 C-2.25 0 -2.25 0 0 0 Z " fill="#3E474D" transform="translate(115,205)"/>
<path d="M0 0 C1.32 0.66 2.64 1.32 4 2 C2.02 3.32 0.04 4.64 -2 6 C-2.66 5.67 -3.32 5.34 -4 5 C-3.01 4.67 -2.02 4.34 -1 4 C-0.26676204 1.98491642 -0.26676204 1.98491642 0 0 Z " fill="#800317" transform="translate(244,101)"/>
</svg>
